<?xml version="1.0" encoding="UTF-8"?>
<svg width="20px" height="20px" viewBox="0 0 20 20" version="1.1" xmlns="http://www.w3.org/2000/svg" xmlns:xlink="http://www.w3.org/1999/xlink">
    <g id="Page-1" stroke="none" stroke-width="1" fill="none" fill-rule="evenodd">
        <g id="Facebook" transform="translate(-983.000000, -22.000000)">
            <g id="Account" transform="translate(981.000000, 20.000000)">
                <path d="M12,2 C6.475,2 2,6.475 2,12 C2,17.525 6.475,22 12,22 C17.525,22 22,17.525 22,12 C22,6.475 17.525,2 12,2 Z M12,5 C13.655,5 15,6.345 15,8 C15,9.66 13.655,11 12,11 C10.345,11 9,9.66 9,8 C9,6.345 10.345,5 12,5 Z M12,19.2 C9.495,19.2 7.295,17.92 6,15.98 C6.025,13.995 10.005,12.9 12,12.9 C13.995,12.9 17.97,13.995 18,15.98 C16.705,17.92 14.505,19.2 12,19.2 Z" id="Shape" fill="#FFFFFF" fill-rule="nonzero"></path>
                <polygon id="Path" points="0 0 24 0 24 24 0 24"></polygon>
            </g>
        </g>
    </g>
</svg>